<svg xmlns="http://www.w3.org/2000/svg" version="1.1" xmlns:xlink="http://www.w3.org/1999/xlink" xmlns:svgjs="http://svgjs.dev/svgjs" width="1500" height="961" viewBox="0 0 1500 961"><g transform="matrix(1,0,0,1,-0.8761416497803793,-1.5500000000000114)"><svg viewBox="0 0 387 248" data-background-color="#333366" preserveAspectRatio="xMidYMid meet" height="961" width="1500" xmlns="http://www.w3.org/2000/svg" xmlns:xlink="http://www.w3.org/1999/xlink"><g id="tight-bounds" transform="matrix(1,0,0,1,0.2260445456433331,0.4000000000000057)"><svg viewBox="0 0 386.54791090871333 247.2" height="247.2" width="386.54791090871333"><g><svg viewBox="0 0 395.52 252.93771157668945" height="247.2" width="386.54791090871333"><g transform="matrix(1,0,0,1,0,153.33324515185)"><svg viewBox="0 0 395.52 99.60446642483944" height="99.60446642483944" width="395.52"><g id="textblocktransform"><svg viewBox="0 0 395.52 99.60446642483944" height="99.60446642483944" width="395.52" id="textblock"><g><svg viewBox="0 0 395.52 66.41874884665066" height="66.41874884665066" width="395.52"><g transform="matrix(1,0,0,1,0,0)"><svg width="395.52" viewBox="0 -35 270.92 45.5" height="66.41874884665066" data-palette-color="#ffff33"><path d="M8.5 0L8.5-32.5 0-32.5 0-35 20.1-35 20.1-32.5 11.3-32.5 11.3 0 8.5 0ZM38.5 0L38.5-17.15Q38.5-20.2 36.72-21.58 34.95-22.95 32.15-22.95L32.15-22.95Q30.45-22.95 28.7-22.48 26.95-22 25.6-21.25L25.6-21.25 25.6 0 22.8 0 22.8-35 25.6-35 25.6-23.7Q26.85-24.55 28.6-25.03 30.35-25.5 32.25-25.5L32.25-25.5Q34.85-25.5 37-24.55L37-24.55Q39-23.65 40.12-21.85 41.25-20.05 41.25-17.3L41.25-17.3 41.25 0 38.5 0ZM66.8-9.2Q66.8-5 64.5-2.25 62.2 0.5 57.55 0.5L57.55 0.5Q52.9 0.5 50.52-2.27 48.15-5.05 48.15-9.2L48.15-9.2 48.15-15.8Q48.15-20.55 50.57-23.08 53-25.6 57.55-25.6L57.55-25.6Q61.9-25.6 64.34-22.98 66.8-20.35 66.8-15.8L66.8-15.8 66.8-9.2ZM64-15.8Q64-19.55 62.27-21.3 60.55-23.05 57.55-23.05L57.55-23.05Q54.45-23.05 52.7-21.3 50.95-19.55 50.95-15.8L50.95-15.8 50.95-8.7Q50.95-5.7 52.72-3.85 54.5-2 57.55-2L57.55-2Q60.65-2 62.32-3.83 64-5.65 64-8.7L64-8.7 64-15.8ZM86.14 0L86.34-2.55Q85.14-1.05 83.32-0.25 81.49 0.55 79.64 0.55L79.64 0.55Q70.24 0.55 70.24-8.6L70.24-8.6 70.24-25.05 73.04-25.05 73.04-8.25Q73.04-5.05 74.82-3.5 76.59-1.95 79.64-1.95L79.64-1.95Q82.64-1.95 84.37-3.48 86.09-5 86.09-8.25L86.09-8.25 86.09-25.05 88.89-25.05 88.89 0 86.14 0ZM105.39 8.35Q108.69 7.1 108.69 3.15L108.69 3.15 108.69-3.05Q106.59 0.6 101.94 0.6L101.94 0.6Q97.54 0.6 95.09-1.8 92.64-4.2 92.64-8.8L92.64-8.8 92.64-16.25Q92.64-20.65 95.22-23.08 97.79-25.5 102.14-25.5L102.14-25.5Q106.79-25.5 108.89-22.15L108.89-22.15 108.69-25.05 111.49-25.05 111.49 3.2Q111.49 6.2 110.24 7.9 108.99 9.6 106.14 10.5L106.14 10.5 105.39 8.35ZM108.69-16.8Q108.69-19.9 106.69-21.43 104.69-22.95 101.94-22.95L101.94-22.95Q99.29-22.95 97.37-21.33 95.44-19.7 95.44-16L95.44-16 95.44-8.35Q95.44-5.2 97.22-3.6 98.99-2 101.94-2L101.94-2Q104.74-2 106.72-3.73 108.69-5.45 108.69-8.65L108.69-8.65 108.69-16.8ZM132.09 0L132.09-17.15Q132.09-20.2 130.31-21.58 128.54-22.95 125.74-22.95L125.74-22.95Q124.04-22.95 122.29-22.48 120.54-22 119.19-21.25L119.19-21.25 119.19 0 116.39 0 116.39-35 119.19-35 119.19-23.7Q120.44-24.55 122.19-25.03 123.94-25.5 125.84-25.5L125.84-25.5Q128.44-25.5 130.59-24.55L130.59-24.55Q132.59-23.65 133.71-21.85 134.84-20.05 134.84-17.3L134.84-17.3 134.84 0 132.09 0ZM145.34 0.65Q142.54-0.15 141.29-1.9 140.04-3.65 140.04-6.6L140.04-6.6 140.04-35 142.84-35 142.84-25.05 148.84-25.05 147.64-22.4 142.84-22.4 142.84-6.6Q142.84-2.6 146.14-1.5L146.14-1.5 145.34 0.65ZM153.88 0L153.88-35 164.93-35Q169.03-35 171.38-32.9 173.73-30.8 173.73-26.5L173.73-26.5Q173.73-24.55 173.08-22.8 172.43-21.05 170.43-19.7L170.43-19.7 170.38-19.6 170.38-19.55Q172.58-18.55 174.06-16.3 175.53-14.05 175.53-10.45L175.53-10.45Q175.53-6.15 173.21-3.08 170.88 0 165.38 0L165.38 0 153.88 0ZM164.83-20.65Q167.63-20.65 169.23-22.15 170.83-23.65 170.83-26.5L170.83-26.5Q170.83-32.35 164.53-32.35L164.53-32.35 156.68-32.35 156.68-20.65 164.83-20.65ZM165.28-2.65Q168.63-2.65 170.58-4.45 172.53-6.25 172.53-10.65L172.53-10.65Q172.53-14.15 170.63-16.03 168.73-17.9 166.13-17.9L166.13-17.9 156.68-17.9 156.68-2.65 165.28-2.65ZM181.08 0L181.08-35 183.88-35 183.88 0 181.08 0ZM210.43-9.2Q210.43-5 208.13-2.25 205.83 0.5 201.18 0.5L201.18 0.5Q196.53 0.5 194.15-2.27 191.78-5.05 191.78-9.2L191.78-9.2 191.78-15.8Q191.78-20.55 194.2-23.08 196.63-25.6 201.18-25.6L201.18-25.6Q205.53-25.6 207.98-22.98 210.43-20.35 210.43-15.8L210.43-15.8 210.43-9.2ZM207.63-15.8Q207.63-19.55 205.9-21.3 204.18-23.05 201.18-23.05L201.18-23.05Q198.08-23.05 196.33-21.3 194.58-19.55 194.58-15.8L194.58-15.8 194.58-8.7Q194.58-5.7 196.35-3.85 198.13-2 201.18-2L201.18-2Q204.28-2 205.95-3.83 207.63-5.65 207.63-8.7L207.63-8.7 207.63-15.8ZM229.98-0.3Q226.88 0.5 223.98 0.5L223.98 0.5Q221.28 0.5 219.48-0.1L219.48-0.1Q216.53-1.1 215.2-3.18 213.88-5.25 213.88-9L213.88-9 213.88-15.4Q213.88-20.35 216.48-22.93 219.08-25.5 223.18-25.5L223.18-25.5Q226.43-25.5 229.88-23.9L229.88-23.9 229.08-21.85Q226.23-23 223.58-23L223.58-23Q220.48-23 218.58-21.23 216.68-19.45 216.68-15.7L216.68-15.7 216.68-8.45Q216.68-5 218.75-3.45 220.83-1.9 224.28-1.9L224.28-1.9Q226.53-1.9 229.38-2.55L229.38-2.55 229.98-0.3ZM247.77 0L238.17-15.85 235.57-13.6 235.57 0 232.77 0 232.77-35 235.57-35 235.57-16.75 245.57-26 247.57-24.05 240.17-17.6Q243.57-11.95 251.12 0L251.12 0 247.77 0ZM255.57-6.35Q255.87-4.1 257.82-2.98 259.77-1.85 262.17-1.85L262.17-1.85Q264.42-1.85 266.27-2.88 268.12-3.9 268.12-6.2L268.12-6.2Q268.12-7.7 267.25-8.68 266.37-9.65 265.07-10.25 263.77-10.85 261.57-11.55L261.57-11.55Q259.12-12.35 257.57-13.05 256.02-13.75 254.87-15.03 253.72-16.3 253.52-18.25L253.52-18.25 253.47-18.85Q253.47-20.5 254.4-22.08 255.32-23.65 257.25-24.65 259.17-25.65 262.07-25.65L262.07-25.65Q263.67-25.65 264.9-25.33 266.12-25 266.82-24.65 267.52-24.3 267.67-24.2L267.67-24.2 266.72-21.9Q266.57-22 266-22.3 265.42-22.6 264.37-22.9 263.32-23.2 262.07-23.2L262.07-23.2Q259.67-23.2 257.97-22.08 256.27-20.95 256.27-18.95L256.27-18.95Q256.27-17.05 257.82-16.05 259.37-15.05 262.57-14.05L262.57-14.05Q265.27-13.15 266.92-12.35 268.57-11.55 269.75-10.08 270.92-8.6 270.92-6.25L270.92-6.25Q270.92-3.25 268.7-1.25 266.47 0.75 262.17 0.75L262.17 0.75Q259.32 0.75 257.25-0.23 255.17-1.2 254.1-2.8 253.02-4.4 252.92-6.35L252.92-6.35 255.57-6.35Z" opacity="1" transform="matrix(1,0,0,1,0,0)" fill="#ffff33" class="wordmark-text-0" data-fill-palette-color="primary" id="text-0"></path></svg></g></svg></g><g transform="matrix(1,0,0,1,71.19359999999999,82.09862139937256)"><svg viewBox="0 0 253.1328 17.505845025466893" height="17.505845025466893" width="253.1328"><g transform="matrix(1,0,0,1,0,0)"><svg width="253.1328" viewBox="3.15 -29.95 441.69 30.55" height="17.505845025466893" data-palette-color="#ffffff"><path d="M18.1 0L14.6 0 6.95-15.35 14.4-29.55 17.85-29.55 10.15-15.3 18.1 0ZM6.3 0L3.15 0 3.15-29.55 6.3-29.55 6.3 0ZM34.55 0L21.8 0 21.8-29.55 34.55-29.55 34.55-27.3 25.05-27.3 25.05-16.7 32.65-16.7 32.65-14.2 25.05-14.2 25.05-2.25 34.55-2.25 34.55 0ZM51.65 0L38.9 0 38.9-29.55 51.65-29.55 51.65-27.3 42.15-27.3 42.15-16.7 49.75-16.7 49.75-14.2 42.15-14.2 42.15-2.25 51.65-2.25 51.65 0ZM59.24 0L55.99 0 55.99-29.55 65.14-29.55Q67.69-29.55 69.24-28.38 70.79-27.2 70.79-24.65L70.79-24.65 70.79-19.2Q70.79-17.5 70.29-16.03 69.79-14.55 68.44-13.65 67.09-12.75 64.54-12.75L64.54-12.75 59.24-12.75 59.24 0ZM59.24-27.7L59.24-14.6 63.59-14.6Q65.59-14.6 66.62-15.83 67.64-17.05 67.64-19.6L67.64-19.6 67.64-23.45Q67.64-25.65 66.69-26.68 65.74-27.7 64.39-27.7L64.39-27.7 59.24-27.7ZM90.89 0L87.74 0 87.74-12.95 82.19-29.55 85.44-29.55 89.24-17.4 89.44-16.4 89.64-17.4 93.74-29.55 96.74-29.55 90.89-12.8 90.89 0ZM106.69 0.6L106.69 0.6Q104.54 0.6 102.89 0.1 101.24-0.4 100.26-1.98 99.29-3.55 99.29-6.75L99.29-6.75 99.29-23.4Q99.29-26.2 100.26-27.6 101.24-29 102.94-29.48 104.64-29.95 106.79-29.95L106.79-29.95Q108.94-29.95 110.61-29.45 112.29-28.95 113.26-27.55 114.24-26.15 114.24-23.4L114.24-23.4 114.24-6.8Q114.24-3.55 113.26-1.98 112.29-0.4 110.61 0.1 108.94 0.6 106.69 0.6ZM106.74-1.35L106.74-1.35Q108.04-1.35 109.01-1.68 109.99-2 110.54-2.98 111.09-3.95 111.09-5.9L111.09-5.9 111.09-23.4Q111.09-25.35 110.54-26.33 109.99-27.3 108.99-27.63 107.99-27.95 106.74-27.95L106.74-27.95Q105.44-27.95 104.46-27.63 103.49-27.3 102.94-26.33 102.39-25.35 102.39-23.4L102.39-23.4 102.39-5.9Q102.39-3.95 102.94-2.98 103.49-2 104.46-1.68 105.44-1.35 106.74-1.35ZM127.28 0.6L127.28 0.6Q125.73 0.6 124.38 0.35 123.03 0.1 122.01-0.6 120.98-1.3 120.41-2.68 119.83-4.05 119.83-6.35L119.83-6.35 119.83-29.55 122.98-29.55 122.98-5.7Q122.98-3.9 123.58-3 124.18-2.1 125.16-1.78 126.13-1.45 127.28-1.45L127.28-1.45Q128.38-1.45 129.38-1.78 130.38-2.1 130.98-3 131.58-3.9 131.58-5.7L131.58-5.7 131.58-29.55 134.68-29.55 134.68-6.35Q134.68-4.05 134.11-2.68 133.53-1.3 132.53-0.6 131.53 0.1 130.16 0.35 128.78 0.6 127.28 0.6ZM143.98 0L140.73 0 140.73-29.55 150.03-29.55Q152.53-29.55 154.08-28.38 155.63-27.2 155.63-24.65L155.63-24.65 155.63-19.85Q155.63-17.3 154.11-15.9 152.58-14.5 149.98-14.4L149.98-14.4 149.98-14.45Q151.58-14.35 152.38-13.33 153.18-12.3 153.78-10.15L153.78-10.15 156.83 0 153.33 0 150.63-9.95Q150.23-11.35 149.61-12.48 148.98-13.6 147.58-13.6L147.58-13.6 143.98-13.6 143.98 0ZM143.98-27.7L143.98-15.85 148.38-15.85Q150.68-15.85 151.61-16.93 152.53-18 152.53-20.1L152.53-20.1 152.53-24.1Q152.53-25.95 151.66-26.83 150.78-27.7 148.98-27.7L148.98-27.7 143.98-27.7ZM179.28 0L170.68 0 170.68-29.55 179.83-29.55Q182.28-29.55 183.83-28.38 185.38-27.2 185.38-24.65L185.38-24.65 185.38-21.05Q185.38-19.65 184.98-18.57 184.58-17.5 183.88-16.85L183.88-16.85Q183.18-16.15 182.2-15.93 181.23-15.7 180.58-15.65L180.58-15.65 180.58-15.75Q181.58-15.75 182.5-15.53 183.43-15.3 184.08-14.65L184.08-14.65Q184.83-13.95 185.25-12.88 185.68-11.8 185.68-10.35L185.68-10.35 185.68-6.05Q185.68-3.55 184.88-2.25 184.08-0.95 182.65-0.48 181.23 0 179.28 0L179.28 0ZM173.83-14.3L173.83-1.8 178.73-1.8Q179.88-1.8 180.73-2.13 181.58-2.45 182.05-3.43 182.53-4.4 182.53-6.3L182.53-6.3 182.53-10.35Q182.53-12.75 181.3-13.53 180.08-14.3 178.28-14.3L178.28-14.3 173.83-14.3ZM173.83-27.7L173.83-16.4 178.18-16.4Q180.18-16.4 181.25-17.5 182.33-18.6 182.33-20.7L182.33-20.7 182.33-24.1Q182.33-25.95 181.35-26.83 180.38-27.7 178.98-27.7L178.98-27.7 173.83-27.7ZM194.52 0L191.27 0 191.27-29.55 200.57-29.55Q203.07-29.55 204.62-28.38 206.17-27.2 206.17-24.65L206.17-24.65 206.17-19.85Q206.17-17.3 204.65-15.9 203.12-14.5 200.52-14.4L200.52-14.4 200.52-14.45Q202.12-14.35 202.92-13.33 203.72-12.3 204.32-10.15L204.32-10.15 207.37 0 203.87 0 201.17-9.95Q200.77-11.35 200.15-12.48 199.52-13.6 198.12-13.6L198.12-13.6 194.52-13.6 194.52 0ZM194.52-27.7L194.52-15.85 198.92-15.85Q201.22-15.85 202.15-16.93 203.07-18 203.07-20.1L203.07-20.1 203.07-24.1Q203.07-25.95 202.2-26.83 201.32-27.7 199.52-27.7L199.52-27.7 194.52-27.7ZM212.87 0L209.57 0 216.12-29.55 220.17-29.55 226.62 0 223.22 0 221.62-6.85 214.37-6.85 212.87 0ZM218.07-25.7L214.47-8.6 221.57-8.6 218.07-25.7ZM233.67 0L230.52 0 230.52-29.55 233.67-29.55 233.67 0ZM242.77 0L239.92 0 239.92-29.55 242.67-29.55 251.92-6.45 251.92-29.55 254.77-29.55 254.77 0 251.92 0 242.77-22.25 242.77 0ZM277.16 0.6L277.16 0.6Q275.01 0.6 273.36 0.1 271.71-0.4 270.74-1.98 269.76-3.55 269.76-6.75L269.76-6.75 269.76-23.4Q269.76-26.2 270.74-27.6 271.71-29 273.41-29.48 275.11-29.95 277.26-29.95L277.26-29.95Q279.41-29.95 281.09-29.45 282.76-28.95 283.74-27.55 284.71-26.15 284.71-23.4L284.71-23.4 284.71-6.8Q284.71-3.55 283.74-1.98 282.76-0.4 281.09 0.1 279.41 0.6 277.16 0.6ZM277.21-1.35L277.21-1.35Q278.51-1.35 279.49-1.68 280.46-2 281.01-2.98 281.56-3.95 281.56-5.9L281.56-5.9 281.56-23.4Q281.56-25.35 281.01-26.33 280.46-27.3 279.46-27.63 278.46-27.95 277.21-27.95L277.21-27.95Q275.91-27.95 274.94-27.63 273.96-27.3 273.41-26.33 272.86-25.35 272.86-23.4L272.86-23.4 272.86-5.9Q272.86-3.95 273.41-2.98 273.96-2 274.94-1.68 275.91-1.35 277.21-1.35ZM293.81 0L290.56 0 290.56-29.55 299.86-29.55Q302.36-29.55 303.91-28.38 305.46-27.2 305.46-24.65L305.46-24.65 305.46-19.85Q305.46-17.3 303.93-15.9 302.41-14.5 299.81-14.4L299.81-14.4 299.81-14.45Q301.41-14.35 302.21-13.33 303.01-12.3 303.61-10.15L303.61-10.15 306.66 0 303.16 0 300.46-9.95Q300.06-11.35 299.43-12.48 298.81-13.6 297.41-13.6L297.41-13.6 293.81-13.6 293.81 0ZM293.81-27.7L293.81-15.85 298.21-15.85Q300.51-15.85 301.43-16.93 302.36-18 302.36-20.1L302.36-20.1 302.36-24.1Q302.36-25.95 301.48-26.83 300.61-27.7 298.81-27.7L298.81-27.7 293.81-27.7ZM312.16 0L308.86 0 315.41-29.55 319.46-29.55 325.91 0 322.51 0 320.91-6.85 313.66-6.85 312.16 0ZM317.36-25.7L313.76-8.6 320.86-8.6 317.36-25.7ZM335.95 0.55L335.95 0.55Q334.15 0.55 332.65 0.08 331.15-0.4 330.23-1.9 329.3-3.4 329.3-6.4L329.3-6.4 329.3-23.35Q329.3-26.15 330.28-27.55 331.25-28.95 332.93-29.45 334.6-29.95 336.8-29.95L336.8-29.95Q339-29.95 340.68-29.43 342.35-28.9 343.3-27.5 344.25-26.1 344.25-23.35L344.25-23.35 344.25-19.6 341.2-19.6 341.2-23.4Q341.2-25.4 340.63-26.35 340.05-27.3 339.08-27.63 338.1-27.95 336.8-27.95L336.8-27.95Q335.55-27.95 334.55-27.63 333.55-27.3 333-26.35 332.45-25.4 332.45-23.4L332.45-23.4 332.45-5.9Q332.45-3.9 333-2.93 333.55-1.95 334.55-1.65 335.55-1.35 336.8-1.35L336.8-1.35Q338.75-1.35 339.98-2.53 341.2-3.7 341.2-5.9L341.2-5.9 341.2-12.05 337.35-12.05 337.35-14 344.25-14 344.25 0 341.9 0 341.75-2.85Q341.6-2.5 341.38-2.18 341.15-1.85 341-1.6L341-1.6Q340.3-0.6 339.08-0.03 337.85 0.55 335.95 0.55ZM350.8 0L347.5 0 354.05-29.55 358.1-29.55 364.55 0 361.15 0 359.55-6.85 352.3-6.85 350.8 0ZM356-25.7L352.4-8.6 359.5-8.6 356-25.7ZM371.3 0L368.45 0 368.45-29.55 371.2-29.55 380.45-6.45 380.45-29.55 383.3-29.55 383.3 0 380.45 0 371.3-22.25 371.3 0ZM392.7 0L389.55 0 389.55-29.55 392.7-29.55 392.7 0ZM408.79 0L396.74 0 396.74-2.2 405.14-27.3 397.29-27.3 397.29-29.55 408.79-29.55 408.79-27.7 400.04-2.25 408.79-2.25 408.79 0ZM425.54 0L412.79 0 412.79-29.55 425.54-29.55 425.54-27.3 416.04-27.3 416.04-16.7 423.64-16.7 423.64-14.2 416.04-14.2 416.04-2.25 425.54-2.25 425.54 0ZM438.34 0L429.89 0 429.89-29.55 438.74-29.55Q440.64-29.55 442.01-29 443.39-28.45 444.11-27.13 444.84-25.8 444.84-23.5L444.84-23.5 444.84-6.45Q444.84-3.9 444.04-2.5 443.24-1.1 441.76-0.55 440.29 0 438.34 0L438.34 0ZM433.14-27.65L433.14-1.8 437.94-1.8Q439.64-1.8 440.66-2.73 441.69-3.65 441.69-6.3L441.69-6.3 441.69-23.1Q441.69-25.75 440.66-26.7 439.64-27.65 437.94-27.65L437.94-27.65 433.14-27.65Z" opacity="1" transform="matrix(1,0,0,1,0,0)" fill="#ffffff" class="slogan-text-1" data-fill-palette-color="secondary" id="text-1"></path></svg></g></svg></g></svg></g></svg></g><g transform="matrix(1,0,0,1,128.93331370043595,0)"><svg viewBox="0 0 137.6533725991281 137.65337259912812" height="137.65337259912812" width="137.6533725991281"><g><svg></svg></g><g id="icon-0"><svg viewBox="0 0 137.6533725991281 137.65337259912812" height="137.65337259912812" width="137.6533725991281"><g><path transform="scale(1.37653,1.37653)" d="M30 100c-16.569 0-30-13.431-30-30v-40c0-16.569 13.431-30 30-30h40c16.569 0 30 13.431 30 30v40c0 16.569-13.431 30-30 30z" fill="#ffffff" fill-rule="nonzero" stroke="none" stroke-width="1" stroke-linecap="butt" stroke-linejoin="miter" stroke-miterlimit="10" stroke-dasharray="" stroke-dashoffset="0" font-family="none" font-weight="none" font-size="none" text-anchor="none" style="mix-blend-mode: normal" data-fill-palette-color="accent"></path></g><g transform="matrix(1,0,0,1,41.048364828448044,27.530674519825624)"><svg viewBox="0 0 55.55664294223201 82.59202355947687" height="82.59202355947687" width="55.55664294223201"><g><svg xmlns="http://www.w3.org/2000/svg" xmlns:xlink="http://www.w3.org/1999/xlink" version="1.1" x="0" y="0" viewBox="22.698 9.333 55.074999999999996 81.876" enable-background="new 0 0 100 100" xml:space="preserve" height="82.59202355947687" width="55.55664294223201" class="icon-dxe-0" data-fill-palette-color="quaternary" id="dxe-0"><rect x="22.698" y="49.426" width="15.94" height="15.94" fill="#333366" data-fill-palette-color="quaternary"></rect><rect x="42.174" y="55.947" width="15.941" height="15.939" fill="#333366" data-fill-palette-color="quaternary"></rect><rect x="61.832" y="49.426" width="15.941" height="15.94" fill="#333366" data-fill-palette-color="quaternary"></rect><rect x="22.698" y="75.27" width="15.94" height="15.939" fill="#333366" data-fill-palette-color="quaternary"></rect><rect x="42.174" y="75.27" width="15.941" height="15.939" fill="#333366" data-fill-palette-color="quaternary"></rect><rect x="61.832" y="68.266" width="15.941" height="15.939" fill="#333366" data-fill-palette-color="quaternary"></rect><rect x="61.832" y="23.824" width="15.941" height="15.941" fill="#333366" data-fill-palette-color="quaternary"></rect><rect x="42.589" y="36.867" width="15.94" height="15.941" fill="#333366" data-fill-palette-color="quaternary"></rect><rect x="22.698" y="9.333" width="15.94" height="15.94" fill="#333366" data-fill-palette-color="quaternary"></rect></svg></g></svg></g></svg></g></svg></g><g></g></svg></g><defs></defs></svg><rect width="386.54791090871333" height="247.2" fill="none" stroke="none" visibility="hidden"></rect></g></svg></g></svg>