<svg xmlns="http://www.w3.org/2000/svg" version="1.1" xmlns:xlink="http://www.w3.org/1999/xlink" xmlns:svgjs="http://svgjs.dev/svgjs" width="1500" height="1500" viewBox="0 0 1500 1500"><rect width="1500" height="1500" fill="#000000"></rect><g transform="matrix(0.6666666666666666,0,0,0.6666666666666666,249.39393939393938,601.7487381510394)"><svg viewBox="0 0 396 117" data-background-color="#e56815" preserveAspectRatio="xMidYMid meet" height="443" width="1500" xmlns="http://www.w3.org/2000/svg" xmlns:xlink="http://www.w3.org/1999/xlink"><g id="tight-bounds" transform="matrix(1,0,0,1,0.2400000000000091,0.2315947054008518)"><svg viewBox="0 0 395.52 116.53681058919831" height="116.53681058919831" width="395.52"><g><svg viewBox="0 0 628.1000861638338 185.06467630545572" height="116.53681058919831" width="395.52"><g><rect width="6.825053887544959" height="160.6929171972119" x="207.88839906282035" y="12.185879554121911" fill="#ffffff" opacity="1" stroke-width="0" stroke="transparent" fill-opacity="1" class="rect-yte-0" data-fill-palette-color="primary" rx="1%" id="yte-0" data-palette-color="#ffffff"></rect></g><g transform="matrix(1,0,0,1,232.58008616383378,25.576955987222902)"><svg viewBox="0 0 395.52 133.91076433100991" height="133.91076433100991" width="395.52"><g id="textblocktransform"><svg viewBox="0 0 395.52 133.91076433100991" height="133.91076433100991" width="395.52" id="textblock"><g><svg viewBox="0 0 395.52 75.68170086526575" height="75.68170086526575" width="395.52"><g transform="matrix(1,0,0,1,0,0)"><svg width="395.52" viewBox="0.25 -37.75 202.22 38.7" height="75.68170086526575" data-palette-color="#ffffff"><path d="M8.25 0.3Q7.75 0.3 7.5-0.08 7.25-0.45 7.25-1L7.25-1 7.25-5.45 7.25-9.9 7.15-17.9Q7-23.25 7-25.9L7-25.9 7.05-27.35 7.05-30.6Q7.05-36 6.95-36L6.95-36 1.3-36Q0.9-36 0.58-36.2 0.25-36.4 0.25-36.75L0.25-36.75Q0.25-37.15 0.4-37.3 0.55-37.45 1.2-37.55L1.2-37.55Q1.9-37.7 3.2-37.7L3.2-37.7 8.2-37.7 13.7-37.75Q14.3-37.75 14.53-37.55 14.75-37.35 14.75-36.9L14.75-36.9Q14.75-36.15 13.8-36.15L13.8-36.15 11.55-36.15 9.35-36.15 8.9-36.1 8.95-33.2 8.95-29.3 8.95-9 8.95-4.85 9-1.15 9-1.05Q9-0.65 8.95-0.38 8.9-0.1 8.75 0.05L8.75 0.05Q8.6 0.3 8.25 0.3L8.25 0.3ZM28.55 0.55Q28.55 0.05 27.05 0.05L27.05 0.05Q26.8-9.2 26.8-13.35L26.8-13.35 26.65-13.55 26.85-14Q26.85-14.9 26.65-15.85L26.65-15.85 25.9-16.05Q25.45-15.9 24.9-15.9L24.9-15.9Q24.5-15.9 23.25-16.15L23.25-16.15Q22.4-16.4 21.7-16.4L21.7-16.4 21.15-16.2Q21.15-14.45 21.1-13.05L21.1-13.05Q21.05-11.65 21.05-9.9L21.05-9.9 21.15-9.7Q21.15-8.3 21.3-5.5L21.3-5.5Q21.45-2.75 21.45-1.35L21.45-1.35Q21.45-0.8 21.25-0.43 21.05-0.05 20.65-0.05L20.65-0.05Q19.55-0.05 19.55-3.05L19.55-3.05Q19.55-5.6 19.6-7.65L19.6-7.65 19.65-12.2Q19.65-16.75 19.5-17.1L19.5-17.1Q19.75-17.6 19.75-20.4L19.75-20.4Q19.75-22.8 19.55-26.25L19.55-26.25 19.45-28.2 19.35-32.1Q19.35-32.45 19.6-32.75 19.85-33.05 20.2-33.05L20.2-33.05Q21.2-33.05 21.2-30.15L21.2-30.15Q21.2-26.75 21.15-24L21.15-24Q21.05-21.25 21.05-17.95L21.05-17.95Q21.05-17.35 24.85-17.35L24.85-17.35 25.05-17.35Q26-17.35 26.42-17.73 26.85-18.1 26.85-19L26.85-19Q26.85-21.65 26.5-25.9L26.5-25.9Q26.2-30.5 26.2-32.8L26.2-32.8Q26.2-33.1 26.45-33.33 26.7-33.55 27.05-33.55L27.05-33.55 27.5-33.4Q27.85-33.35 27.95-33.25L27.95-33.25Q27.95-29.35 28.25-21.6L28.25-21.6Q28.55-13.8 28.55-9.9L28.55-9.9Q28.55-4 28.9 0L28.9 0 28.55 0.55ZM25.4-17.95L25.4-18.05 25.5-17.95 25.4-17.95ZM41.09 0.95Q35.25 0.95 35.25-17.45L35.25-17.45 35.25-19.2Q35.25-33.15 38.84-33.15L38.84-33.15Q39.09-33.15 39.55-33L39.55-33Q41.15-32.45 42.7-32.3L42.7-32.3Q43.65-32.1 44.59-30.35L44.59-30.35Q45.65-28.55 46.17-25.6 46.7-22.65 46.7-19.55L46.7-19.55 46.59-19.3Q46.59-17.65 46.65-16.35L46.65-16.35 46.7-13.35Q46.7-10.8 46.5-8.75L46.5-8.75Q46.2-5.65 45.5-3.4L45.5-3.4Q45.05-2.05 44.47-1.15 43.9-0.25 43.05 0.35L43.05 0.35Q42.25 0.95 41.09 0.95L41.09 0.95ZM40.9-0.5Q42.84-0.5 43.8-3.25L43.8-3.25Q44.75-6.05 44.95-8.95L44.95-8.95Q45.15-11.95 45.15-13.75L45.15-13.75Q45.15-15.75 44.84-19.65L44.84-19.65Q44.59-24 44.59-25.55L44.59-25.55 44.4-25.95 44.5-26.2Q44.5-28.4 43.27-30 42.05-31.6 40.3-31.6L40.3-31.6Q38-31.6 37.55-29.4L37.55-29.4Q37.45-28.65 37.34-27.25L37.34-27.25Q37.34-23.55 37.05-22.2L37.05-22.2Q37.05-21.45 36.9-19.85L36.9-19.85 36.8-17.5Q36.8-16.4 36.84-15.55L36.84-15.55 36.9-13.55Q36.9-11.2 37.3-8.15L37.3-8.15Q37.59-5.9 38-4.35 38.4-2.8 39.15-1.7L39.15-1.7Q39.9-0.5 40.9-0.5L40.9-0.5ZM58.44 0.75Q57.64 0.75 56.72 0.23 55.79-0.3 55.19-1L55.19-1Q54.49-1.9 54.09-6.05 53.69-10.2 53.59-15.55L53.59-15.55Q53.59-16.75 53.54-17.35L53.54-17.35Q53.44-29.9 53.14-32.2L53.14-32.2 53.44-32.9Q54.59-32.75 54.59-30.15L54.59-30.15 54.74-16.9Q54.74-15.5 54.99-11.6L54.99-11.6Q55.29-8.1 55.29-6.3L55.29-6.3Q55.29-0.6 59.04-0.6L59.04-0.6Q61.34-0.6 61.99-11.1L61.99-11.1 62.04-12.1Q62.39-25.85 62.39-32.45L62.39-32.45 62.34-32.9Q62.29-33.1 62.29-33.35L62.29-33.35Q62.29-33.9 63.14-33.9L63.14-33.9Q63.74-33.9 63.89-33.6L63.89-33.6Q63.99-33.1 63.99-31.85L63.99-31.85Q63.99-28.05 63.69-26.75L63.69-26.75 63.74-26.45Q63.74-25.8 63.59-24.45L63.59-24.45 63.49-22.45 63.49-21.95Q63.54-21.75 63.54-21.45L63.54-21.45Q63.44-20.25 63.44-19.15L63.44-19.15Q63.39-18.8 63.39-18.05L63.39-18.05Q63.29-13.3 63.19-9.8L63.19-9.8Q63.04-5.45 61.99-2.45L61.99-2.45Q60.89 0.75 58.44 0.75L58.44 0.75ZM77.39 0.35Q75.09 0.35 73.99-0.2 72.89-0.75 72.36-2.33 71.84-3.9 71.44-7.35L71.44-7.35Q70.84-12.4 70.84-15.2L70.84-15.2Q70.84-16.9 71.04-19.1L71.04-19.1 71.34-22.25Q71.59-26 71.92-27.93 72.24-29.85 73.36-31.33 74.49-32.8 76.84-33.05L76.84-33.05Q77.09-33.1 77.64-33.1L77.64-33.1Q79.19-33.1 79.19-32.4L79.19-32.4Q79.19-32.1 78.87-31.88 78.54-31.65 78.19-31.65L78.19-31.65 77.69-31.7 77.24-31.75Q76.39-31.75 75.72-31.2 75.04-30.65 74.59-29.6L74.59-29.6Q73.54-27.1 73.24-24.7L73.24-24.7Q72.84-21.55 72.74-19.2L72.74-19.2 72.69-15.35Q72.69-12.9 72.84-11.7L72.84-11.7Q73.19-11.15 73.31-10.03 73.44-8.9 73.54-6.95L73.54-6.95Q73.64-5.2 73.99-3.98 74.34-2.75 75.24-1.95L75.24-1.95Q76.24-1.1 77.99-1.1L77.99-1.1Q79.44-1.1 80.04-2.7L80.04-2.7Q80.74-4.4 80.84-6.2L80.84-6.2Q80.99-8.45 80.99-10L80.99-10 80.99-12.75Q80.49-13.25 79.24-13.25L79.24-13.25 78.84-13.25Q78.59-13.2 78.29-13.2L78.29-13.2Q77.09-13.2 77.09-13.8L77.09-13.8Q77.09-14.65 78.29-14.65L78.29-14.65Q79.14-14.65 79.69-14.6L79.69-14.6 80.79-14.55Q81.74-14.4 82.29-14.2L82.29-14.2Q82.89-14 82.89-13.65L82.89-13.65Q82.89-13 82.59-11.8L82.59-11.8Q82.34-10.4 82.34-9.9L82.34-9.9Q82.34-7.8 82.44-6.1L82.44-6.1Q82.49-4.35 82.49-2.25L82.49-2.25Q79.94 0.35 77.39 0.35L77.39 0.35ZM97.44 0.55Q97.44 0.05 95.94 0.05L95.94 0.05Q95.69-9.2 95.69-13.35L95.69-13.35 95.54-13.55 95.74-14Q95.74-14.9 95.54-15.85L95.54-15.85 94.79-16.05Q94.34-15.9 93.79-15.9L93.79-15.9Q93.39-15.9 92.14-16.15L92.14-16.15Q91.29-16.4 90.59-16.4L90.59-16.4 90.04-16.2Q90.04-14.45 89.99-13.05L89.99-13.05Q89.94-11.65 89.94-9.9L89.94-9.9 90.04-9.7Q90.04-8.3 90.19-5.5L90.19-5.5Q90.34-2.75 90.34-1.35L90.34-1.35Q90.34-0.8 90.14-0.43 89.94-0.05 89.54-0.05L89.54-0.05Q88.44-0.05 88.44-3.05L88.44-3.05Q88.44-5.6 88.49-7.65L88.49-7.65 88.54-12.2Q88.54-16.75 88.39-17.1L88.39-17.1Q88.64-17.6 88.64-20.4L88.64-20.4Q88.64-22.8 88.44-26.25L88.44-26.25 88.34-28.2 88.24-32.1Q88.24-32.45 88.49-32.75 88.74-33.05 89.09-33.05L89.09-33.05Q90.09-33.05 90.09-30.15L90.09-30.15Q90.09-26.75 90.04-24L90.04-24Q89.94-21.25 89.94-17.95L89.94-17.95Q89.94-17.35 93.74-17.35L93.74-17.35 93.94-17.35Q94.89-17.35 95.31-17.73 95.74-18.1 95.74-19L95.74-19Q95.74-21.65 95.39-25.9L95.39-25.9Q95.09-30.5 95.09-32.8L95.09-32.8Q95.09-33.1 95.34-33.33 95.59-33.55 95.94-33.55L95.94-33.55 96.39-33.4Q96.74-33.35 96.84-33.25L96.84-33.25Q96.84-29.35 97.14-21.6L97.14-21.6Q97.44-13.8 97.44-9.9L97.44-9.9Q97.44-4 97.79 0L97.79 0 97.44 0.55ZM94.29-17.95L94.29-18.05 94.39-17.95 94.29-17.95ZM108.64-0.3L108.09-0.7 108.03-2.55Q107.98-3.35 107.98-4.35L107.98-4.35Q107.98-4.85 108.03-5.2L108.03-5.2 108.09-6.1Q108.09-6.6 107.89-7.3L107.89-7.3Q107.89-10.65 107.39-19.75L107.39-19.75Q106.89-28.55 106.84-31.7L106.84-31.7Q103.73-31.7 102.69-31.85L102.69-31.85Q101.69-32.1 101.69-32.65L101.69-32.65Q101.94-33.2 102.64-33.2L102.64-33.2Q104.14-33.2 106.98-33L106.98-33Q109.59-32.75 111.34-32.75L111.34-32.75 112.39-32.75 113.44-32.8Q114.34-32.8 114.34-32.15L114.34-32.15Q114.34-31.85 114.01-31.68 113.69-31.5 113.23-31.5L113.23-31.5Q112.23-31.5 111.14-31.6L111.14-31.6 108.98-31.7Q108.78-31.7 108.78-31.55L108.78-31.55Q108.73-31.4 108.73-30.6L108.73-30.6Q108.73-25.75 109.34-15.9L109.34-15.9Q109.89-5.7 109.89-1.25L109.89-1.25Q109.89-0.9 109.46-0.6 109.03-0.3 108.64-0.3L108.64-0.3ZM121.63 0.3Q119.78 0.3 119.78-0.4L119.78-0.4Q119.78-2.5 119.93-6.75L119.93-6.75 120.03-13.05Q120.03-16.55 119.88-23.5L119.88-23.5Q119.68-29.65 119.68-33.9L119.68-33.9Q119.68-37.5 120.98-37.5L120.98-37.5Q124.33-37.5 126.16-35.35 127.98-33.2 127.98-29.65L127.98-29.65Q127.98-25.65 124.78-21.35L124.78-21.35Q127.43-18.7 128.51-16.3 129.58-13.9 129.58-10.55L129.58-10.55Q129.58-8.5 129.46-7.28 129.33-6.05 128.98-5L128.98-5Q128.63-3.9 128.01-3.1 127.38-2.3 126.33-1.6L126.33-1.6Q125.33-0.9 123.73-0.2L123.73-0.2Q123.13-0.05 122.73 0.05L122.73 0.05Q122.08 0.3 121.73 0.3L121.73 0.3 121.63 0.3ZM121.58-21.6Q122.68-21.6 123.68-22.55 124.68-23.5 125.33-25.05L125.33-25.05Q125.98-26.5 126.33-28.08 126.68-29.65 126.68-30.95L126.68-30.95Q126.68-32.7 125.41-34.25 124.13-35.8 122.53-35.8L122.53-35.8Q121.23-35.8 121.23-33.65L121.23-33.65Q121.23-30.3 121.33-27.65L121.33-27.65 121.43-21.65 121.58-21.6ZM121.98-1.65Q123.68-1.65 125.11-2.68 126.53-3.7 127.36-5.4 128.18-7.1 128.18-9.05L128.18-9.05Q128.18-18 123.88-19.8L123.88-19.8Q123.48-19.8 122.58-19.55L122.58-19.55Q121.73-19.25 121.43-19.25L121.43-19.25Q121.68-11.1 121.68-1.7L121.68-1.7 121.83-1.7 121.98-1.65ZM136.63 0.65Q135.93 0.65 135.78-0.5L135.78-0.5Q135.88-0.8 135.88-2.15L135.88-2.15Q135.88-6.75 136.03-15.8L136.03-15.8Q136.18-24.8 136.18-28.8L136.18-28.8 136.28-30.6 136.43-32.1Q136.43-32.45 136.78-32.45L136.78-32.45Q137.03-32.45 137.48-32.3L137.48-32.3 137.63-32.25Q137.63-31.15 137.58-30.25L137.58-30.25 137.58-28.3 137.58-22.85Q137.63-20.45 137.63-17.4L137.63-17.4Q137.58-17.15 137.58-16.3L137.58-16.3 137.53-15.25Q137.48-14.25 137.48-13.2L137.48-13.2Q137.48-12.05 137.53-11.1L137.53-11.1 137.58-8.95 137.43-8.55 137.48-8.6Q137.48-8.45 137.43-8.4L137.43-8.4 137.43-8.2Q137.43-7.8 137.58-7.5L137.58-7.5 137.43-2.7 137.43-2.4Q137.43-1.55 137.48-1.4L137.48-1.4Q137.48-1.15 137.73-1.15L137.73-1.15 140.33-1.05Q141.48-1.05 141.91-1.03 142.33-1 142.43-1L142.43-1 142.58-1Q142.83-1 143.08-0.73 143.33-0.45 143.33-0.15L143.33-0.15Q143.33 0.45 142.53 0.5L142.53 0.5Q141.68 0.45 138.38 0.45L138.38 0.45 138.48 0.5Q137.98 0.5 137.53 0.55L137.53 0.55Q137.13 0.65 136.63 0.65L136.63 0.65ZM153.38 0.95Q147.53 0.95 147.53-17.45L147.53-17.45 147.53-19.2Q147.53-33.15 151.13-33.15L151.13-33.15Q151.38-33.15 151.83-33L151.83-33Q153.43-32.45 154.98-32.3L154.98-32.3Q155.93-32.1 156.88-30.35L156.88-30.35Q157.93-28.55 158.45-25.6 158.98-22.65 158.98-19.55L158.98-19.55 158.88-19.3Q158.88-17.65 158.93-16.35L158.93-16.35 158.98-13.35Q158.98-10.8 158.78-8.75L158.78-8.75Q158.48-5.65 157.78-3.4L157.78-3.4Q157.33-2.05 156.75-1.15 156.18-0.25 155.33 0.35L155.33 0.35Q154.53 0.95 153.38 0.95L153.38 0.95ZM153.18-0.5Q155.13-0.5 156.08-3.25L156.08-3.25Q157.03-6.05 157.23-8.95L157.23-8.95Q157.43-11.95 157.43-13.75L157.43-13.75Q157.43-15.75 157.13-19.65L157.13-19.65Q156.88-24 156.88-25.55L156.88-25.55 156.68-25.95 156.78-26.2Q156.78-28.4 155.55-30 154.33-31.6 152.58-31.6L152.58-31.6Q150.28-31.6 149.83-29.4L149.83-29.4Q149.73-28.65 149.63-27.25L149.63-27.25Q149.63-23.55 149.33-22.2L149.33-22.2Q149.33-21.45 149.18-19.85L149.18-19.85 149.08-17.5Q149.08-16.4 149.13-15.55L149.13-15.55 149.18-13.55Q149.18-11.2 149.58-8.15L149.58-8.15Q149.88-5.9 150.28-4.35 150.68-2.8 151.43-1.7L151.43-1.7Q152.18-0.5 153.18-0.5L153.18-0.5ZM170.38 0.8L169.18 0.35Q168.22 0.05 167.55-0.5 166.88-1.05 166.28-2.15L166.28-2.15Q165.22-4.15 165.03-7.9L165.03-7.9Q164.93-9.6 164.93-10.9L164.93-10.9 164.93-16.6Q164.93-19.85 165.13-22.9L165.13-22.9Q165.28-25.15 165.57-26.7 165.88-28.25 166.53-29.8L166.53-29.8Q167.22-31.4 168.07-32.05L168.07-32.05Q168.43-32.35 169.43-32.75L169.43-32.75Q170.07-33 170.68-33.3L170.68-33.3 172.68-33.3 172.82-33.3Q172.88-33.25 172.97-33.25L172.97-33.25 173.22-33.2 173.43-33.05Q173.57-32.9 173.57-32.85L173.57-32.85Q173.63-32.75 173.63-32.55L173.63-32.55 172.97-31.8 170.88-31.8Q169.93-31.8 169.15-30.88 168.38-29.95 167.97-28.55L167.97-28.55Q167.57-27.3 167.32-25.6 167.07-23.9 167.03-22.65L167.03-22.65Q166.93-21.05 166.93-20.45L166.93-20.45 166.82-20.2Q166.82-17.4 166.72-15.15L166.72-15.15 166.63-10.1Q166.63-7.9 166.93-6.05L166.93-6.05Q167.18-4.05 168.38-2.45L168.38-2.45Q169.53-0.85 171.93-0.85L171.93-0.85Q172.68-0.85 173.18-1.3L173.18-1.3Q173.93-1.3 173.93-0.75L173.93-0.75Q173.93-0.4 173.3 0.08 172.68 0.55 172.03 0.8L172.03 0.8 170.38 0.8ZM190.67 0.9Q189.47 0.9 187.82-3.6L187.82-3.6Q186.27-7.75 185.12-12.6 183.97-17.45 183.87-19.4L183.87-19.4 183.72-19.6 182.97-18Q182.42-16.95 182.15-16.28 181.87-15.6 181.62-14.6L181.62-14.6Q181.32-13.65 181.32-12.65L181.32-12.65Q181.32-11.65 181.22-10.85L181.22-10.85 181.12-9.05 181.12-2.65Q181.12-2.2 181.27-1.2L181.27-1.2Q181.42-0.3 181.42 0.2L181.42 0.2Q181.42 0.45 181.17 0.63 180.92 0.8 180.62 0.8L180.62 0.8Q179.97 0.8 179.75 0.6 179.52 0.4 179.52-0.25L179.52-0.25 179.52-9.65Q179.52-10.45 179.77-12.8L179.77-12.8Q180.02-15.15 180.02-15.95L180.02-15.95Q180.02-18.05 180.27-20.8L180.27-20.8Q180.47-23.6 180.47-25.6L180.47-25.6 180.47-32.55Q180.77-33.1 181.42-33.1L181.42-33.1Q181.82-33.1 182.1-32.83 182.37-32.55 182.37-32.15L182.37-32.15Q181.97-31.25 181.97-29.75L181.97-29.75 181.87-24.5Q181.77-22.1 181.77-19.2L181.77-19.2Q182.27-19.35 185.67-26.1L185.67-26.1Q189.07-32.8 189.42-32.8L189.42-32.8Q190.72-32.8 190.72-31.95L190.72-31.95Q187.52-27.2 185.42-22.7L185.42-22.7 185.37-21.1Q185.32-20.4 185.32-19.5L185.32-19.5Q185.32-17.3 187.02-11.25 188.72-5.2 189.92-2.85L189.92-2.85Q190.47-2.1 190.57-2L190.57-2Q191.07-1.3 191.3-0.83 191.52-0.35 191.52 0.15L191.52 0.15Q191.52 0.5 191.27 0.7 191.02 0.9 190.67 0.9L190.67 0.9ZM196.77 0.6Q196.22 0.5 195.72 0.18 195.22-0.15 195.17-0.6L195.17-0.6 195.42-1Q195.62-1 196.32-0.85L196.32-0.85Q196.87-0.65 197.22-0.65L197.22-0.65Q198.32-0.65 199.17-1.53 200.02-2.4 200.47-3.8L200.47-3.8Q201.17-6.4 201.17-8.7L201.17-8.7Q201.17-12.15 199.07-16.1L199.07-16.1Q197.77-18.4 197.07-19.75 196.37-21.1 195.82-22.85L195.82-22.85Q195.17-24.9 195.17-26.8L195.17-26.8Q195.17-28.6 196.07-31.05L196.07-31.05Q196.52-32.2 197.34-32.93 198.17-33.65 199.12-33.65L199.12-33.65Q199.77-33.65 200.4-33.2 201.02-32.75 201.02-32.25L201.02-32.25Q201.02-31.85 200.37-31.85L200.37-31.85Q200.17-31.85 199.87-32L199.87-32Q199.57-32.15 199.32-32.15L199.32-32.15Q198.57-32.15 197.97-31.55 197.37-30.95 197.07-30L197.07-30Q196.47-28.15 196.47-26.6L196.47-26.6Q196.47-25.65 196.72-24.65L196.72-24.65Q196.77-24.35 196.82-24.15 196.87-23.95 196.87-23.85L196.87-23.85 197.17-22.85 197.42-21.95 197.82-21.05Q197.97-20.7 198.15-20.43 198.32-20.15 198.47-19.9L198.47-19.9 199.07-18.85Q199.27-18.55 199.92-17.43 200.57-16.3 201.12-15.05L201.12-15.05Q201.62-14 201.87-13.08 202.12-12.15 202.32-10.85L202.32-10.85Q202.47-9.6 202.47-8.1L202.47-8.1Q202.47-5.7 201.82-3.6L201.82-3.6Q200.92-1.1 199.22-0.1L199.22-0.1Q198.27 0.5 197.02 0.5L197.02 0.5 196.77 0.6ZM200.72-32L200.77-32Q200.77-32.05 200.72-32.05L200.72-32.05 200.72-32Z" opacity="1" transform="matrix(1,0,0,1,0,0)" fill="#ffffff" class="wordmark-text-0" data-fill-palette-color="primary" id="text-0"></path></svg></g></svg></g><g transform="matrix(1,0,0,1,0,93.54833407873423)"><svg viewBox="0 0 232.20979199999996 40.36243025227568" height="40.36243025227568" width="232.20979199999996"><g transform="matrix(1,0,0,1,0,0)"><svg width="232.20979199999996" viewBox="3.65 -37.5 230.67 40.1" height="40.36243025227568" data-palette-color="#ffffff"><path d="M5.6 0.3Q3.75 0.3 3.75-0.4L3.75-0.4Q3.75-2.5 3.9-6.75L3.9-6.75 4-13.05Q4-16.55 3.85-23.5L3.85-23.5Q3.65-29.65 3.65-33.9L3.65-33.9Q3.65-37.5 4.95-37.5L4.95-37.5Q8.3-37.5 10.13-35.35 11.95-33.2 11.95-29.65L11.95-29.65Q11.95-25.65 8.75-21.35L8.75-21.35Q11.4-18.7 12.48-16.3 13.55-13.9 13.55-10.55L13.55-10.55Q13.55-8.5 13.43-7.28 13.3-6.05 12.95-5L12.95-5Q12.6-3.9 11.98-3.1 11.35-2.3 10.3-1.6L10.3-1.6Q9.3-0.9 7.7-0.2L7.7-0.2Q7.1-0.05 6.7 0.05L6.7 0.05Q6.05 0.3 5.7 0.3L5.7 0.3 5.6 0.3ZM5.55-21.6Q6.65-21.6 7.65-22.55 8.65-23.5 9.3-25.05L9.3-25.05Q9.95-26.5 10.3-28.08 10.65-29.65 10.65-30.95L10.65-30.95Q10.65-32.7 9.38-34.25 8.1-35.8 6.5-35.8L6.5-35.8Q5.2-35.8 5.2-33.65L5.2-33.65Q5.2-30.3 5.3-27.65L5.3-27.65 5.4-21.65 5.55-21.6ZM5.95-1.65Q7.65-1.65 9.08-2.68 10.5-3.7 11.33-5.4 12.15-7.1 12.15-9.05L12.15-9.05Q12.15-18 7.85-19.8L7.85-19.8Q7.45-19.8 6.55-19.55L6.55-19.55Q5.7-19.25 5.4-19.25L5.4-19.25Q5.65-11.1 5.65-1.7L5.65-1.7 5.8-1.7 5.95-1.65ZM24.95 0.75Q24.15 0.75 23.22 0.23 22.3-0.3 21.7-1L21.7-1Q21-1.9 20.6-6.05 20.2-10.2 20.1-15.55L20.1-15.55Q20.1-16.75 20.05-17.35L20.05-17.35Q19.95-29.9 19.65-32.2L19.65-32.2 19.95-32.9Q21.1-32.75 21.1-30.15L21.1-30.15 21.25-16.9Q21.25-15.5 21.5-11.6L21.5-11.6Q21.8-8.1 21.8-6.3L21.8-6.3Q21.8-0.6 25.55-0.6L25.55-0.6Q27.85-0.6 28.5-11.1L28.5-11.1 28.55-12.1Q28.9-25.85 28.9-32.45L28.9-32.45 28.85-32.9Q28.8-33.1 28.8-33.35L28.8-33.35Q28.8-33.9 29.65-33.9L29.65-33.9Q30.25-33.9 30.4-33.6L30.4-33.6Q30.5-33.1 30.5-31.85L30.5-31.85Q30.5-28.05 30.2-26.75L30.2-26.75 30.25-26.45Q30.25-25.8 30.1-24.45L30.1-24.45 30-22.45 30-21.95Q30.05-21.75 30.05-21.45L30.05-21.45Q29.95-20.25 29.95-19.15L29.95-19.15Q29.9-18.8 29.9-18.05L29.9-18.05Q29.8-13.3 29.7-9.8L29.7-9.8Q29.55-5.45 28.5-2.45L28.5-2.45Q27.4 0.75 24.95 0.75L24.95 0.75ZM40.7 0Q39.55 0 39.35-0.5L39.35-0.5Q39.1-0.5 38.95-0.45L38.95-0.45 38.55-0.45Q37.45-0.45 37.15-0.95L37.15-0.95Q37.15-1.3 37.55-1.55L37.55-1.55 37.8-1.8 39.25-1.8 39.45-2 39.55-2.45 39.6-3.05Q39.6-6.1 39.45-8.5L39.45-8.5 39.35-10.35 39.25-14Q39.25-15.95 39.4-19.85L39.4-19.85 39.5-25.65Q39.5-29.45 39.25-31.45L39.25-31.45Q38.8-31.6 37.75-31.6L37.75-31.6 37.2-31.55Q36.9-31.5 36.55-31.5L36.55-31.5Q35.6-31.5 35.6-32.35L35.6-32.35Q35.6-32.55 36.05-32.75 36.5-32.95 36.8-32.95L36.8-32.95Q38.7-32.95 40.6-32.75L40.6-32.75Q41.75-32.7 42.9-32.3L42.9-32.3Q43.8-32 43.8-31.45L43.8-31.45Q43.8-31.35 43.65-31.05L43.65-31.05 42.5-30.95Q42.15-31.25 41.05-31.25L41.05-31.25 40.8-31.1Q40.95-30.65 40.95-28.45L40.95-28.45Q40.95-25.15 40.9-22.5L40.9-22.5 40.8-16.55Q40.8-14.3 41-11.1L41-11.1Q41.15-7.45 41.15-5.6L41.15-5.6 41.15-4.95Q41.1-4.6 41.1-4.05L41.1-4.05Q41.1-2.9 41.25-2.65L41.25-2.65 41.2-2.55Q41.2-2.05 42.3-2.05L42.3-2.05Q42.75-2.05 43.05-2.1L43.05-2.1 43.8-2.1Q45.25-2.1 45.25-1.4L45.25-1.4Q45.25-0.95 44.95-0.68 44.65-0.4 44.15-0.4L44.15-0.4Q43.7-0.4 43.35-0.5L43.35-0.5Q42.95-0.55 42.5-0.55L42.5-0.55Q42.2-0.55 41.6-0.3L41.6-0.3Q41 0 40.7 0L40.7 0ZM50.74 0.65Q50.04 0.65 49.89-0.5L49.89-0.5Q49.99-0.8 49.99-2.15L49.99-2.15Q49.99-6.75 50.14-15.8L50.14-15.8Q50.29-24.8 50.29-28.8L50.29-28.8 50.39-30.6 50.54-32.1Q50.54-32.45 50.89-32.45L50.89-32.45Q51.14-32.45 51.59-32.3L51.59-32.3 51.74-32.25Q51.74-31.15 51.69-30.25L51.69-30.25 51.69-28.3 51.69-22.85Q51.74-20.45 51.74-17.4L51.74-17.4Q51.69-17.15 51.69-16.3L51.69-16.3 51.64-15.25Q51.59-14.25 51.59-13.2L51.59-13.2Q51.59-12.05 51.64-11.1L51.64-11.1 51.69-8.95 51.54-8.55 51.59-8.6Q51.59-8.45 51.54-8.4L51.54-8.4 51.54-8.2Q51.54-7.8 51.69-7.5L51.69-7.5 51.54-2.7 51.54-2.4Q51.54-1.55 51.59-1.4L51.59-1.4Q51.59-1.15 51.84-1.15L51.84-1.15 54.44-1.05Q55.59-1.05 56.02-1.03 56.44-1 56.54-1L56.54-1 56.69-1Q56.94-1 57.19-0.73 57.44-0.45 57.44-0.15L57.44-0.15Q57.44 0.45 56.64 0.5L56.64 0.5Q55.79 0.45 52.49 0.45L52.49 0.45 52.59 0.5Q52.09 0.5 51.64 0.55L51.64 0.55Q51.24 0.65 50.74 0.65L50.74 0.65ZM63.24 0.25Q62.84 0.25 62.84-1.1L62.84-1.1Q62.64-4.55 62.64-9.8L62.64-9.8Q62.64-13.1 62.69-15.7L62.69-15.7 62.74-21.6Q62.74-25.4 62.54-31L62.54-31Q62.09-31.4 62.09-32L62.09-32Q62.09-32.35 62.52-32.73 62.94-33.1 63.29-33.1L63.29-33.1Q63.69-33.1 64.04-32.7L64.04-32.7 64.59-32.25Q64.89-32.1 65.74-31.95L65.74-31.95Q66.59-31.8 66.94-31.65L66.94-31.65Q67.69-31.25 68.94-30.1L68.94-30.1Q70.14-28.9 70.59-28.6L70.59-28.6 70.54-28.5Q70.59-28.2 71.29-27.2L71.29-27.2Q71.84-26.45 72.19-25.8L72.19-25.8Q72.99-23.5 72.99-19.85L72.99-19.85Q72.99-19.2 72.94-18.7L72.94-18.7 72.94-17.5 72.94-17.1 72.89-16.6Q72.89-15.65 73.19-15.1L73.19-15.1Q72.89-13.5 72.44-9.05L72.44-9.05Q72.29-7.75 71.94-6.3 71.59-4.85 71.09-3.9L71.09-3.9Q69.79-1.45 66.74 0.25L66.74 0.25 63.24 0.25ZM64.99-1.2L66.54-1.2Q66.89-1.6 67.19-1.85L67.19-1.85Q67.19-1.85 67.54-2.1L67.54-2.1 67.94-2.45Q71.44-5.6 71.44-14.45L71.44-14.45 71.44-15.4Q71.39-15.8 71.39-16.25L71.39-16.25 71.19-21.3Q71.04-24.2 69.44-27.3L69.44-27.3Q68.69-28.85 67.42-29.83 66.14-30.8 64.74-30.8L64.74-30.8Q64.14-30.8 64.14-21.55L64.14-21.55Q64.14-10.85 64.74-2.9L64.74-2.9 64.69-1.95 64.89-1.85 64.99-1.2ZM91.54 0.75Q91.39 0.75 91.14 0.55 90.89 0.35 90.84 0.2L90.84 0.2Q91.29-1 91.29-8.55L91.29-8.55Q91.29-10 91.14-12.7L91.14-12.7 90.89-16.25 90.59-16.9 90.74-17.5Q90.44-18.2 89.84-19.85 89.24-21.5 88.64-23.2L88.64-23.2Q86.84-27.95 86.29-30.05L86.29-30.05Q85.99-31.05 85.84-31.9L85.84-31.9 86.54-32.45Q87.04-32.35 87.99-29.25L87.99-29.25Q88.74-27.05 89.34-24.9L89.34-24.9 89.94-23Q90.84-19.9 91.24-19.8L91.24-19.8 91.44-20.7 91.34-20.95Q91.74-21.45 92.34-24.5L92.34-24.5Q92.99-28 93.59-30.4L93.59-30.4Q94.24-33.2 94.89-33.2L94.89-33.2Q95.14-33.2 95.34-33.05 95.54-32.9 95.54-32.7L95.54-32.7Q95.54-31.95 94.04-26.8L94.04-26.8Q93.29-24.35 92.79-22.2L92.79-22.2Q92.19-19.65 92.19-17.65L92.19-17.65Q92.44-17.15 92.44-16.8L92.44-16.8Q92.44-16.55 92.29-16.1L92.29-16.1Q92.14-15.65 92.14-15.35L92.14-15.35Q92.14-15.1 92.34-13.1L92.34-13.1Q92.54-11.75 92.54-10.8L92.54-10.8Q92.54-8.6 92.59-6.85L92.59-6.85 92.59-2.85 92.59-2.65Q92.59 0.75 91.54 0.75L91.54 0.75ZM106.78 0.95Q100.93 0.95 100.93-17.45L100.93-17.45 100.93-19.2Q100.93-33.15 104.53-33.15L104.53-33.15Q104.78-33.15 105.23-33L105.23-33Q106.83-32.45 108.38-32.3L108.38-32.3Q109.33-32.1 110.28-30.35L110.28-30.35Q111.33-28.55 111.86-25.6 112.38-22.65 112.38-19.55L112.38-19.55 112.28-19.3Q112.28-17.65 112.33-16.35L112.33-16.35 112.38-13.35Q112.38-10.8 112.18-8.75L112.18-8.75Q111.88-5.65 111.18-3.4L111.18-3.4Q110.73-2.05 110.16-1.15 109.58-0.25 108.73 0.35L108.73 0.35Q107.93 0.95 106.78 0.95L106.78 0.95ZM106.58-0.5Q108.53-0.5 109.48-3.25L109.48-3.25Q110.43-6.05 110.63-8.95L110.63-8.95Q110.83-11.95 110.83-13.75L110.83-13.75Q110.83-15.75 110.53-19.65L110.53-19.65Q110.28-24 110.28-25.55L110.28-25.55 110.08-25.95 110.18-26.2Q110.18-28.4 108.96-30 107.73-31.6 105.98-31.6L105.98-31.6Q103.68-31.6 103.23-29.4L103.23-29.4Q103.13-28.65 103.03-27.25L103.03-27.25Q103.03-23.55 102.73-22.2L102.73-22.2Q102.73-21.45 102.58-19.85L102.58-19.85 102.48-17.5Q102.48-16.4 102.53-15.55L102.53-15.55 102.58-13.55Q102.58-11.2 102.98-8.15L102.98-8.15Q103.28-5.9 103.68-4.35 104.08-2.8 104.83-1.7L104.83-1.7Q105.58-0.5 106.58-0.5L106.58-0.5ZM124.13 0.75Q123.33 0.75 122.41 0.23 121.48-0.3 120.88-1L120.88-1Q120.18-1.9 119.78-6.05 119.38-10.2 119.28-15.55L119.28-15.55Q119.28-16.75 119.23-17.35L119.23-17.35Q119.13-29.9 118.83-32.2L118.83-32.2 119.13-32.9Q120.28-32.75 120.28-30.15L120.28-30.15 120.43-16.9Q120.43-15.5 120.68-11.6L120.68-11.6Q120.98-8.1 120.98-6.3L120.98-6.3Q120.98-0.6 124.73-0.6L124.73-0.6Q127.03-0.6 127.68-11.1L127.68-11.1 127.73-12.1Q128.08-25.85 128.08-32.45L128.08-32.45 128.03-32.9Q127.98-33.1 127.98-33.35L127.98-33.35Q127.98-33.9 128.83-33.9L128.83-33.9Q129.43-33.9 129.58-33.6L129.58-33.6Q129.68-33.1 129.68-31.85L129.68-31.85Q129.68-28.05 129.38-26.75L129.38-26.75 129.43-26.45Q129.43-25.8 129.28-24.45L129.28-24.45 129.18-22.45 129.18-21.95Q129.23-21.75 129.23-21.45L129.23-21.45Q129.13-20.25 129.13-19.15L129.13-19.15Q129.08-18.8 129.08-18.05L129.08-18.05Q128.98-13.3 128.88-9.8L128.88-9.8Q128.73-5.45 127.68-2.45L127.68-2.45Q126.58 0.75 124.13 0.75L124.13 0.75ZM145.53 0.85L144.83 0.6Q144.23-0.05 143.53-2.85 142.83-5.65 142.23-9.15L142.23-9.15Q141.83-12 141.08-14.8L141.08-14.8Q140.48-17.3 139.93-17.3L139.93-17.3 139.78-17.3Q138.68-17.3 138.68-16.6L138.68-16.6Q138.68-13 139.08-5.65L139.08-5.65Q139.28-1.15 139.53-0.4L139.53-0.4 139.13 0.45 138.43 0.45 138.03 0.05Q137.23-23.05 137.23-31.45L137.23-31.45Q137.23-32 137.3-32.35 137.38-32.7 137.63-33L137.63-33Q137.83-33.35 138.33-33.35L138.33-33.35Q140.88-33.35 142.43-32.1 143.98-30.85 143.98-28.5L143.98-28.5 143.98-24.85Q143.98-23.9 143.35-22.3 142.73-20.7 141.98-19.35L141.98-19.35 141.33-18.1Q141.88-15.55 143.5-8.93 145.13-2.3 145.28-1.9L145.28-1.9Q145.33-1.85 145.4-1.65 145.48-1.45 145.73-1.05L145.73-1.05Q146.08-0.35 146.08 0.15L146.08 0.15Q146.08 0.85 145.53 0.85L145.53 0.85ZM138.93-18.55Q139.88-18.55 140.63-19.5 141.38-20.45 141.83-21.95L141.83-21.95Q142.63-25 142.63-26.8L142.63-26.8Q142.63-27.95 142.5-28.7 142.38-29.45 142.08-30.3L142.08-30.3Q141.48-32.05 139.23-32.05L139.23-32.05Q138.98-32.05 138.83-31.63 138.68-31.2 138.68-30.75L138.68-30.75Q138.68-27.4 138.78-24.7L138.78-24.7Q138.83-22 138.83-18.65L138.83-18.65 138.93-18.55ZM179.97 2.6Q178.97 2.6 178.97-0.6L178.97-0.6 178.97-3.9Q178.97-11.1 178.67-15.15L178.67-15.15 178.52-17Q178.32-18.25 178.32-19.2L178.32-19.2Q178.32-20.9 178.42-22.3L178.42-22.3 178.52-25.4Q178.52-26.95 178.32-27.75L178.32-27.75Q177.32-27.05 172.27-6.7L172.27-6.7 172.22-5.95Q172.07-4.7 171.82-3.95L171.82-3.95Q171.67-3.4 171.4-3.1 171.12-2.8 170.77-2.8L170.77-2.8Q169.97-2.8 169.62-3.2 169.27-3.6 169.27-4.45L169.27-4.45Q169.27-5.8 168-11.45 166.72-17.1 165.25-22.3 163.77-27.5 163.22-28.05L163.22-28.05Q163.17-26.3 162.82-19.8L162.82-19.8Q162.12-8.3 162.12-1.7L162.12-1.7 162.17 0.3Q161.97 0.95 161.12 0.95L161.12 0.95Q160.97 0.95 160.62 0.68 160.27 0.4 160.27 0.25L160.27 0.25Q160.27-4.25 161.07-15.55L161.07-15.55Q161.82-26.05 161.82-31.3L161.82-31.3Q161.82-31.55 161.72-31.8L161.72-31.8Q161.57-32.1 161.57-32.25L161.57-32.25Q161.57-33 162.87-33L162.87-33Q163.72-33 163.87-32.25L163.87-32.25Q164.07-31.25 164.07-30.75L164.07-30.75 164.12-30.15Q164.37-28.85 165.57-26.15L165.57-26.15Q166.52-24 167.02-22.4L167.02-22.4Q167.32-21.2 167.57-20.45L167.57-20.45Q168.37-17.55 168.62-16.15L168.62-16.15 169.27-14.85Q169.42-14.1 169.87-12.4L169.87-12.4Q170.32-10.5 170.52-9.3 170.72-8.1 170.72-7L170.72-7Q171.27-7.85 173.85-17.23 176.42-26.6 176.87-29.2L176.87-29.2Q176.92-29.3 176.95-29.48 176.97-29.65 177.02-29.95L177.02-29.95Q177.12-30.6 177.47-31.9L177.47-31.9Q177.87-32.9 178.67-32.9L178.67-32.9Q179.02-32.9 179.47-32.6 179.92-32.3 179.92-32L179.92-32Q179.92-11.15 180.57-9.95L180.57-9.95 180.57-7.35Q180.52-6.2 180.52-4.7L180.52-4.7Q180.52-1.5 180.87 0.1L180.87 0.1Q180.92 0.15 180.95 0.25 180.97 0.35 181.02 0.5L181.02 0.5Q181.07 0.7 181.07 0.95L181.07 0.95Q181.07 1.5 180.75 2.05 180.42 2.6 179.97 2.6L179.97 2.6ZM178.32-27.95L178.32-28.05 178.27-28.05 178.17-28 178.32-27.95ZM191.27 0Q190.12 0 189.92-0.5L189.92-0.5Q189.67-0.5 189.52-0.45L189.52-0.45 189.12-0.45Q188.02-0.45 187.72-0.95L187.72-0.95Q187.72-1.3 188.12-1.55L188.12-1.55 188.37-1.8 189.82-1.8 190.02-2 190.12-2.45 190.17-3.05Q190.17-6.1 190.02-8.5L190.02-8.5 189.92-10.35 189.82-14Q189.82-15.95 189.97-19.85L189.97-19.85 190.07-25.65Q190.07-29.45 189.82-31.45L189.82-31.45Q189.37-31.6 188.32-31.6L188.32-31.6 187.77-31.55Q187.47-31.5 187.12-31.5L187.12-31.5Q186.17-31.5 186.17-32.35L186.17-32.35Q186.17-32.55 186.62-32.75 187.07-32.95 187.37-32.95L187.37-32.95Q189.27-32.95 191.17-32.75L191.17-32.75Q192.32-32.7 193.47-32.3L193.47-32.3Q194.37-32 194.37-31.45L194.37-31.45Q194.37-31.35 194.22-31.05L194.22-31.05 193.07-30.95Q192.72-31.25 191.62-31.25L191.62-31.25 191.37-31.1Q191.52-30.65 191.52-28.45L191.52-28.45Q191.52-25.15 191.47-22.5L191.47-22.5 191.37-16.55Q191.37-14.3 191.57-11.1L191.57-11.1Q191.72-7.45 191.72-5.6L191.72-5.6 191.72-4.95Q191.67-4.6 191.67-4.05L191.67-4.05Q191.67-2.9 191.82-2.65L191.82-2.65 191.77-2.55Q191.77-2.05 192.87-2.05L192.87-2.05Q193.32-2.05 193.62-2.1L193.62-2.1 194.37-2.1Q195.82-2.1 195.82-1.4L195.82-1.4Q195.82-0.95 195.52-0.68 195.22-0.4 194.72-0.4L194.72-0.4Q194.27-0.4 193.92-0.5L193.92-0.5Q193.52-0.55 193.07-0.55L193.07-0.55Q192.77-0.55 192.17-0.3L192.17-0.3Q191.57 0 191.27 0L191.27 0ZM213.17 0.2Q212.77 0.2 212.59-0.1 212.42-0.4 212.27-1L212.27-1Q212.22-1.4 212.07-1.7L212.07-1.7 212.12-1.85Q211.72-4.2 210.42-7.6L210.42-7.6 209.52-10.2Q209.42-10.3 208.57-12.75L208.57-12.75 208.17-13.95Q203.67-27.85 202.52-29L202.52-29Q202.12-27.65 202.12-25.5L202.12-25.5Q202.12-24.35 202.17-23.5L202.17-23.5 202.22-21.55 202.17-20.35Q202.12-19.8 202.12-19.15L202.12-19.15Q202.12-18.05 202.22-17.25L202.22-17.25Q202.32-15.65 202.32-15.65L202.32-15.65 202.17-15.65Q202.17-7.3 202.52-6.45L202.52-6.45 202.52-1.95Q202.72-1.55 202.72-0.9L202.72-0.9Q202.72-0.5 202.44-0.2 202.17 0.1 201.77 0.1L201.77 0.1Q200.72 0.1 200.72-2.6L200.72-2.6 200.82-4.2Q200.92-4.95 200.92-5.85L200.92-5.85Q200.92-8.25 200.77-13.05L200.77-13.05Q200.62-17.85 200.62-20.25L200.62-20.25Q200.62-21.7 200.77-24.7L200.77-24.7Q200.92-27.65 200.92-29.1L200.92-29.1 200.92-29.75Q200.92-32.2 201.82-32.95L201.82-32.95 201.97-32.8 202.47-32.9Q202.67-32.85 202.92-32.6L202.92-32.6Q203.12-32.4 203.12-32.15L203.12-32.15 203.22-31.85Q203.22-31.75 203.24-31.68 203.27-31.6 203.27-31.6L203.27-31.6Q204.07-28.05 206.87-21.65L206.87-21.65Q209.72-14.9 210.42-12.7L210.42-12.7Q210.92-10.95 211.22-9.6L211.22-9.6Q212.17-5.35 213.47-3.05L213.47-3.05 213.57-3.2Q214.72-14.3 214.72-30.45L214.72-30.45 214.67-31.05Q214.62-31.3 214.62-31.7L214.62-31.7Q214.62-32.75 215.32-32.75L215.32-32.75Q215.77-32.75 216.09-32.3 216.42-31.85 216.42-31.3L216.42-31.3 216.42-27.95 216.17-27.55Q216.17-22.8 215.62-11.95 215.07-1.1 214.57-0.15L214.57-0.15 213.72 0.05 213.72 0.1 213.67 0.05 213.17 0.2ZM224.37 0.25Q223.97 0.25 223.97-1.1L223.97-1.1Q223.77-4.55 223.77-9.8L223.77-9.8Q223.77-13.1 223.82-15.7L223.82-15.7 223.87-21.6Q223.87-25.4 223.67-31L223.67-31Q223.22-31.4 223.22-32L223.22-32Q223.22-32.35 223.64-32.73 224.07-33.1 224.42-33.1L224.42-33.1Q224.82-33.1 225.17-32.7L225.17-32.7 225.72-32.25Q226.02-32.1 226.87-31.95L226.87-31.95Q227.72-31.8 228.07-31.65L228.07-31.65Q228.82-31.25 230.07-30.1L230.07-30.1Q231.27-28.9 231.72-28.6L231.72-28.6 231.67-28.5Q231.72-28.2 232.42-27.2L232.42-27.2Q232.97-26.45 233.32-25.8L233.32-25.8Q234.12-23.5 234.12-19.85L234.12-19.85Q234.12-19.2 234.07-18.7L234.07-18.7 234.07-17.5 234.07-17.1 234.02-16.6Q234.02-15.65 234.32-15.1L234.32-15.1Q234.02-13.5 233.57-9.05L233.57-9.05Q233.42-7.75 233.07-6.3 232.72-4.85 232.22-3.9L232.22-3.9Q230.92-1.45 227.87 0.25L227.87 0.25 224.37 0.25ZM226.12-1.2L227.67-1.2Q228.02-1.6 228.32-1.85L228.32-1.85Q228.32-1.85 228.67-2.1L228.67-2.1 229.07-2.45Q232.57-5.6 232.57-14.45L232.57-14.45 232.57-15.4Q232.52-15.8 232.52-16.25L232.52-16.25 232.32-21.3Q232.17-24.2 230.57-27.3L230.57-27.3Q229.82-28.85 228.54-29.83 227.27-30.8 225.87-30.8L225.87-30.8Q225.27-30.8 225.27-21.55L225.27-21.55Q225.27-10.85 225.87-2.9L225.87-2.9 225.82-1.95 226.02-1.85 226.12-1.2Z" opacity="1" transform="matrix(1,0,0,1,0,0)" fill="#ffffff" class="slogan-text-1" data-fill-palette-color="secondary" id="text-1"></path></svg></g></svg></g></svg></g></svg></g><g><svg viewBox="0 0 190.02176584935188 185.06467630545572" height="185.06467630545572" width="190.02176584935188"><g><svg xmlns:x="http://ns.adobe.com/Extensibility/1.0/" xmlns:i="http://ns.adobe.com/AdobeIllustrator/10.0/" xmlns:graph="http://ns.adobe.com/Graphs/1.0/" xmlns="http://www.w3.org/2000/svg" xmlns:xlink="http://www.w3.org/1999/xlink" version="1.1" x="0" y="0" viewBox="4 5.2 92 89.6" enable-background="new 0 0 100 100" xml:space="preserve" height="185.06467630545572" width="190.02176584935188" class="icon-icon-0" data-fill-palette-color="accent" id="icon-0"><path d="M96 86.6V60.8C96 56.3 92.3 52.6 87.8 52.6H62C57.5 52.6 53.8 56.3 53.8 60.8V86.6C53.8 91.1 57.5 94.8 62 94.8H87.8C92.3 94.8 96 91.1 96 86.6M58.7 86.6V60.8C58.7 59 60.2 57.6 61.9 57.6H87.7C89.5 57.6 90.9 59.1 90.9 60.8V86.6C90.9 88.4 89.4 89.8 87.7 89.8H62C60.2 89.8 58.7 88.4 58.7 86.6M76.6 5.9L91.5 20.8C92.5 21.8 92.5 23.4 91.5 24.3 90.5 25.3 88.9 25.3 88 24.3L77.4 13.7V45.3C77.4 46.7 76.3 47.8 74.9 47.8S72.4 46.7 72.4 45.3V13.7L61.8 24.3C61.3 24.8 60.7 25 60 25S58.7 24.8 58.2 24.3C57.2 23.3 57.2 21.7 58.2 20.8L73.1 5.9C73.6 5.4 74.2 5.2 74.9 5.2S76.2 5.5 76.6 5.9M12.2 5.2C7.7 5.2 4 8.9 4 13.4V39.2C4 43.7 7.7 47.4 12.2 47.4H38C42.5 47.4 46.2 43.7 46.2 39.2V13.4C46.2 8.9 42.5 5.2 38 5.2zM41.3 13.4V39.2C41.3 41 39.8 42.4 38.1 42.4H12.2C10.5 42.5 9 41 9 39.2V13.4C9 11.6 10.5 10.2 12.2 10.2H38C39.8 10.2 41.3 11.6 41.3 13.4M23.4 94.1L8.5 79.2C7.5 78.2 7.5 76.6 8.5 75.7 9.5 74.7 11.1 74.7 12 75.7L22.6 86.3V54.6C22.6 53.2 23.7 52.1 25.1 52.1S27.6 53.2 27.6 54.6V86.2L38.2 75.6C39.2 74.6 40.8 74.6 41.7 75.6 42.7 76.6 42.7 78.2 41.7 79.1L26.9 94.1C26.4 94.6 25.8 94.8 25.1 94.8S23.8 94.5 23.4 94.1" fill="#ffffff" data-fill-palette-color="accent"></path></svg><g></g></g></svg></g></svg></g><defs></defs></svg><rect width="395.52" height="116.53681058919831" fill="none" stroke="none" visibility="hidden"></rect></g></svg></g></svg>